<?xml version="1.0" encoding="utf-8"?>
<!-- Generator: Adobe Illustrator 18.1.1, SVG Export Plug-In . SVG Version: 6.00 Build 0)  -->
<svg version="1.1" id="Layer_1" xmlns="http://www.w3.org/2000/svg" xmlns:xlink="http://www.w3.org/1999/xlink" x="0px" y="0px"
	 viewBox="-234.9 338 72.9 59" enable-background="new -234.9 338 72.9 59" xml:space="preserve">
<path d="M-166.6,354.9c-0.2-1.4-1.3-3.3-1.3-3.3c-0.3-0.4-0.7-0.8-1.1-1.2c-1.6-1.6-3.3-2.6-5.5-3.4c-1.5-0.6-3.1-0.3-4.7-0.7
	c-1.9-0.4-3.9-0.5-5.9-0.9c-0.8-0.2-1.7-0.5-2.5-0.7c-1-0.2-1.2,0.5-2,0.5c-0.8,0-1.5-0.7-2.4-0.7c-1.2,0-2.3,0.6-3.5,0.8
	c-2,0.4-3.9-0.6-5.9-1.1c-2.6-0.7-5.4-1.3-8.1-1.7c-0.9-0.1-1.9-0.1-2.7,0.2c-1.2,0.4-1.1,1.5-2.3,1.6c-1.3,0.1-2.7-0.3-4,0
	c-1.2,0.3-1.7,1.3-2.7,1.7c-1.3,0.6-2.8,0.6-4.1,1.4c-1.3,0.8-2,2.3-2.9,3.6c-0.6,0.9-1,1.5-1.3,2.5c-0.2,0.8-0.5,1.3-1,1.9
	c-0.4,0.6-1,1.2-1,1.9c-0.1,0.7,0.4,1.2,0.3,1.9c-0.2,1-1.9,2-1.1,3c0.6,0.8,1.7,0.5,2.4,0.4c0.1,1.6-0.1,3.4,0.4,4.9
	c0.4,1.4,1.5,2.5,1.8,3.9c1.4,0.6,3.9-1.1,5.2-1.5c1.6-0.5,3.3-0.7,5-1c1.1-0.2,2-0.5,3.1-0.3c0.5,0.1,1.8,0.7,2.3,0.6
	c0.4-0.1,0.2-0.4,0.5-0.7c0.5-0.7,0.8-1.1,1.7-1.2c1-0.1,1.9,0.4,3,0.3c1.1-0.1,2.1-0.5,3.2-0.6c2.1-0.3,4.3-0.3,6.3,0.3
	c1.2,0.3,2.4,0.6,3.5,0.8c0.1,0.2,0.2,0.4,0.3,0.6c0.2,0.7,0.1,1.9,0.7,2.3c0.5-0.6,1-1.7,1.2-2.8c0.1,0,0.1,0,0.2,0
	c0.4,1.2,0.7,2.4,1.3,3.5c0.8-0.3,1-2.4,1-3.9c0.1,0,0.2,0,0.3-0.1c0.7,1.1,1.1,2.5,1.8,3.8c0.6-0.4,1.1-2.1,1.3-2.7
	c0.2-0.6,0.2-1.2,0.2-1.8c0.5-0.1,1-0.3,1.5-0.4c0.4,0.6,0.9,1.2,1.2,2c0.2,0.6,0.2,1.6,0.6,2.1c1.1-0.7,1.5-3.2,1.3-5
	c0,0,0.1,0,0.1,0c0.9,1.2,1.3,2.6,1.8,4c1.1-1.2,0.8-3.1,0.6-4.8c0.3-0.1,0.6-0.2,0.9-0.3c0.4,0.8,0.6,1.6,0.8,2.5
	c0.1,0.6,0.3,2,0.6,3.4c1.1-0.7,1.1-3.5,1.1-4.3c0-0.8-0.2-1.6-0.4-2.3c0.2-0.1,0.4-0.1,0.5-0.2c0.5,1,1.6,3.1,2.1,3
	c0.9-0.2,0.4-2.5,0.1-3.8c0.6-0.3,1.3-0.6,1.9-0.9c0.2,0.7,0.7,1.5,0.9,2.1c0.3,0.7,0.3,1.4,0.9,0.7c0.6-0.6,0.6-2.8,0.4-4.1
	c0.7-0.5,1.5-1,2.3-1.1C-166.2,358.1-166.5,356.1-166.6,354.9z M-208.5,359.5c-0.3,0.6-0.8,1.8-1.4,2.3c-0.8,0.6-2.2,0.4-3.1,0.1
	c-1.8-0.6-2.7-2-1.9-3.8c0.4-1,2.3-2.2,1.5-3.1c-0.8-0.8-2.6-0.4-3-1.7c-0.3-1.1,0.6-2.1,1.5-2.2c0.4,0,1.1,0.2,1.4-0.1
	c0.3-0.3,0.2-1.1,0.4-1.4l0.3-0.3c1.9,0.5,3.5,2.9,4.5,4.5C-207.3,355.9-207.6,357.6-208.5,359.5z M-196.6,360.1
	c-1.4,0.9-2.9,1.8-4.5,1.3c-0.7-0.2-1.4-0.5-2-1.1c-0.8-0.7-0.8-1.3-0.8-2.4c-0.2-3.8-0.8-7.8-3.3-10.7c0,0,0.2,0,0,0
	c-0.1-1.2,3.8,0.4,4.4,0.7c2.6,0.9,5.5,1.7,7.4,3.8C-193,354.4-193.6,358.1-196.6,360.1z M-187.1,357.8c-1-0.1-2.7-1.2-2.1-2.4
	c0.5-1.1,2.9-0.8,3.9-0.5c0.5,0.2,3.3,1.9,1.6,2.4l0.4-0.2c-0.4,0.2-1.2,0.2-1.7,0.3C-185.7,357.6-186.4,357.8-187.1,357.8z
	 M-177.8,350.9c0,0,3.2-1,4.8-0.7c1.3,0.3,3.6,1.1,2.9,2.8c-0.8,2-2.1,0.5-3.3-0.2c-0.7-0.4-1.4-0.7-2.2-1
	C-176,351.5-177.6,351.3-177.8,350.9z"/>
<path d="M-170.3,382.1c-0.5,1.1-0.5,2.5-1.2,3.5c-0.2-0.1-0.4-0.1-0.6-0.2c0.2-0.5,0.4-1,0.4-1.3c0.2-1.3-0.1-3.5-1.1-4.4
	c-0.8,1.5-0.3,3.5-1.3,5.1c0,0-0.6,0.1-0.8,0c-0.2-1-0.3-3.2-0.9-2.9c-0.2,0.9-0.5,1.9-0.7,2.9c0,0,0,0,0,0c-0.2-1.1-0.5-3-1.2-2.9
	c-0.7,0.1-0.8,2-1.2,2.9c-1.4-0.1-2.7-0.3-4.2-0.7c0-1.9,0-4.5-0.8-4.8c0,0-0.4,2.7-1,4.2c-0.4-0.2-0.9-0.3-1.3-0.5
	c-0.1,0-0.2-0.1-0.3-0.1c0-1.2-0.3-2.5-0.5-3.5c-0.3,0.6-1.4,2.5-1.3,2.8c0,0-0.9-0.2-1.4-0.4c-0.1-0.9-0.3-1.7-0.5-2.5
	c-0.1-0.7-0.2-1.6-0.7-2.1c0,0.6-0.2,3-0.7,4c-0.3-0.1-0.6-0.3-0.9-0.4c-0.2-0.9-0.5-1.8-0.8-2.1c-0.2,0.5-0.3,1-0.5,1.4
	c-0.6-0.3-1.1-0.7-1.7-1c-0.4-0.9-0.8-1.9-1.2-2.8c-0.4,0.4-0.7,1.1-0.9,1.8c-2.5-1.1-5.1-2.2-7.8-3c-2-0.6-4.2-1.4-6.3-1.4
	c-2.3-0.1-3.8-0.6-6-1.4c-2.5-0.9-4.7,0.8-7.5,0.6l0,0c-0.2-0.1-0.4,0-0.4-0.3c-1.2-0.1-1.8-0.6-3.2-0.2c0,0.4,0.1,0.7,0.1,1.1
	c0,0.8-0.2,2-0.7,2.7c-0.6,0.8-2,1-2.1,2.2c-0.1,1.1,1,1.3,1.7,1.8c1.4,0.8,2.6,1.6,3.7,2.8c1.1,1.2,2.6,2,3.5,3.2
	c1.1,1.4,1.4,1.9,3.1,2.6c1.3,0.5,2.3,1.3,3.4,1.9c1.6,0.9,3.7,1.5,5.5,1.8c2.4,0.4,4.5-0.3,6.8-1c2.1-0.6,4.1-0.9,6.3-0.9
	c4.6,0,9.2,0.6,13.8,0.8c2.2,0.1,4.4,0.3,6.5,0.5c1.2,0.1,2.6,0.3,3.6-0.4c0.8-0.6,1.3-1.5,1.9-2.3c0.4-0.6,1.3-1.4,1.3-2.2
	c0,0,0-0.1,0-0.1C-169.4,385.4-169.6,383.3-170.3,382.1z M-221,377.1c-0.9,0.4-2.2,0-2.9-0.6c-2-1.9,1.9-1.6,3-1.6l-0.2-0.2
	C-220,375.1-220.1,376.6-221,377.1z M-210,389.1c-1.1,0.2-2.4-1.4-3-2c-0.8-0.8-2.6-2.5-1.6-3.8v0.1c1.7,0.5,2.6,1.4,3.8,2.6
	C-210.3,386.5-208.3,388.7-210,389.1z"/>
<text transform="matrix(1 0 0 1 -234.9411 419.8448)" font-family="'HelveticaNeue-Bold'" font-size="3.7037">Created by Drew Ellis</text>
<text transform="matrix(1 0 0 1 -234.9411 423.5483)" font-family="'HelveticaNeue-Bold'" font-size="3.7037">from the Noun Project</text>
</svg>
