<?xml version="1.0" encoding="utf-8"?>
<!-- Generator: Adobe Illustrator 18.1.1, SVG Export Plug-In . SVG Version: 6.00 Build 0)  -->
<svg version="1.1" id="Layer_1" xmlns="http://www.w3.org/2000/svg" xmlns:xlink="http://www.w3.org/1999/xlink" x="0px" y="0px"
	 viewBox="100.8 40.8 408 558.1" enable-background="new 100.8 40.8 408 558.1" xml:space="preserve">
<g>
	<path d="M306,56.3c-105.1,0-189.7,184.1-189.7,336.6c0,104.6,85.1,189.7,189.7,189.7s189.7-85.1,189.7-189.7
		C495.7,240.5,411.1,56.3,306,56.3z M306,570.4c-97.9,0-177.5-79.6-177.5-177.5c0-17.9,1.2-36.3,3.6-54.8
		c43.2-9.8,81.7-42.7,94.3-85.4c12-40.2-2.4-77.8-33-98.2c31-51.3,70.4-85.9,112.6-85.9c32.1,0,62.7,20.2,89.2,52.5
		c-37.2,11.6-59.8,50.7-52.4,97.4c8.8,55.8,57.1,101,107.8,101c9.3,0,17.9-1.6,25.9-4.5c4.6,26.2,7.1,52.5,7.1,77.9
		C483.5,490.8,403.9,570.4,306,570.4z"/>
	<path d="M343.3,357.4c-44.3,0-82.9,39.5-86.3,88.1c-3.4,48.7,29.7,88.2,74,88.2c44.3,0,82.9-39.5,86.3-88.1
		S387.6,357.4,343.3,357.4z"/>
</g>
</svg>
